<svg xmlns="http://www.w3.org/2000/svg" width="1200" height="510" viewBox="0 0 1200 510" role="img" aria-labelledby="title desc"><title id="title">원자번호 1부터 36까지 Pauling 전기음성도</title><desc id="desc">전기음성도는 주기율표의 오른쪽 위로 갈수록 커지며 플루오린이 3.98로 가장 크다.</desc><rect width="1200" height="510" fill="#fff"/><text x="600" y="36" text-anchor="middle" font-family="sans-serif" font-size="24" font-weight="700" fill="#172033">Pauling 전기음성도: H–Kr</text><g font-family="sans-serif"><g><rect x="55" y="88" width="56" height="70" rx="4" fill="hsl(128.125 70% 77.0625%)" stroke="#64748b"/><text x="61" y="105" font-size="11" fill="#475569">1</text><text x="83" y="128" text-anchor="middle" font-size="20" font-weight="700" fill="#172033">H</text><text x="83" y="148" text-anchor="middle" font-size="13" fill="#172033">2.20</text></g><g><rect x="1092" y="88" width="56" height="70" rx="4" fill="#e5e7eb" stroke="#64748b"/><text x="1098" y="105" font-size="11" fill="#475569">2</text><text x="1120" y="128" text-anchor="middle" font-size="20" font-weight="700" fill="#172033">He</text><text x="1120" y="148" text-anchor="middle" font-size="13" fill="#172033">—</text></g><g><rect x="55" y="170" width="56" height="70" rx="4" fill="hsl(208.1875 70% 86.59375%)" stroke="#64748b"/><text x="61" y="187" font-size="11" fill="#475569">3</text><text x="83" y="210" text-anchor="middle" font-size="20" font-weight="700" fill="#172033">Li</text><text x="83" y="230" text-anchor="middle" font-size="13" fill="#172033">0.98</text></g><g><rect x="116" y="170" width="56" height="70" rx="4" fill="hsl(169.46875 70% 81.984375%)" stroke="#64748b"/><text x="122" y="187" font-size="11" fill="#475569">4</text><text x="144" y="210" text-anchor="middle" font-size="20" font-weight="700" fill="#172033">Be</text><text x="144" y="230" text-anchor="middle" font-size="13" fill="#172033">1.57</text></g><g><rect x="787" y="170" width="56" height="70" rx="4" fill="hsl(138.625 70% 78.3125%)" stroke="#64748b"/><text x="793" y="187" font-size="11" fill="#475569">5</text><text x="815" y="210" text-anchor="middle" font-size="20" font-weight="700" fill="#172033">B</text><text x="815" y="230" text-anchor="middle" font-size="13" fill="#172033">2.04</text></g><g><rect x="848" y="170" width="56" height="70" rx="4" fill="hsl(105.15625000000003 70% 74.328125%)" stroke="#64748b"/><text x="854" y="187" font-size="11" fill="#475569">6</text><text x="876" y="210" text-anchor="middle" font-size="20" font-weight="700" fill="#172033">C</text><text x="876" y="230" text-anchor="middle" font-size="13" fill="#172033">2.55</text></g><g><rect x="909" y="170" width="56" height="70" rx="4" fill="hsl(73 70% 70.5%)" stroke="#64748b"/><text x="915" y="187" font-size="11" fill="#475569">7</text><text x="937" y="210" text-anchor="middle" font-size="20" font-weight="700" fill="#172033">N</text><text x="937" y="230" text-anchor="middle" font-size="13" fill="#172033">3.04</text></g><g><rect x="970" y="170" width="56" height="70" rx="4" fill="hsl(46.75000000000003 70% 67.375%)" stroke="#64748b"/><text x="976" y="187" font-size="11" fill="#475569">8</text><text x="998" y="210" text-anchor="middle" font-size="20" font-weight="700" fill="#172033">O</text><text x="998" y="230" text-anchor="middle" font-size="13" fill="#172033">3.44</text></g><g><rect x="1031" y="170" width="56" height="70" rx="4" fill="hsl(11.312500000000028 70% 63.15625%)" stroke="#64748b"/><text x="1037" y="187" font-size="11" fill="#475569">9</text><text x="1059" y="210" text-anchor="middle" font-size="20" font-weight="700" fill="#172033">F</text><text x="1059" y="230" text-anchor="middle" font-size="13" fill="#172033">3.98</text></g><g><rect x="1092" y="170" width="56" height="70" rx="4" fill="#e5e7eb" stroke="#64748b"/><text x="1098" y="187" font-size="11" fill="#475569">10</text><text x="1120" y="210" text-anchor="middle" font-size="20" font-weight="700" fill="#172033">Ne</text><text x="1120" y="230" text-anchor="middle" font-size="13" fill="#172033">—</text></g><g><rect x="55" y="252" width="56" height="70" rx="4" fill="hsl(211.46875 70% 86.984375%)" stroke="#64748b"/><text x="61" y="269" font-size="11" fill="#475569">11</text><text x="83" y="292" text-anchor="middle" font-size="20" font-weight="700" fill="#172033">Na</text><text x="83" y="312" text-anchor="middle" font-size="13" fill="#172033">0.93</text></g><g><rect x="116" y="252" width="56" height="70" rx="4" fill="hsl(186.53125 70% 84.015625%)" stroke="#64748b"/><text x="122" y="269" font-size="11" fill="#475569">12</text><text x="144" y="292" text-anchor="middle" font-size="20" font-weight="700" fill="#172033">Mg</text><text x="144" y="312" text-anchor="middle" font-size="13" fill="#172033">1.31</text></g><g><rect x="787" y="252" width="56" height="70" rx="4" fill="hsl(166.84375 70% 81.671875%)" stroke="#64748b"/><text x="793" y="269" font-size="11" fill="#475569">13</text><text x="815" y="292" text-anchor="middle" font-size="20" font-weight="700" fill="#172033">Al</text><text x="815" y="312" text-anchor="middle" font-size="13" fill="#172033">1.61</text></g><g><rect x="848" y="252" width="56" height="70" rx="4" fill="hsl(147.8125 70% 79.40625%)" stroke="#64748b"/><text x="854" y="269" font-size="11" fill="#475569">14</text><text x="876" y="292" text-anchor="middle" font-size="20" font-weight="700" fill="#172033">Si</text><text x="876" y="312" text-anchor="middle" font-size="13" fill="#172033">1.90</text></g><g><rect x="909" y="252" width="56" height="70" rx="4" fill="hsl(128.78125 70% 77.140625%)" stroke="#64748b"/><text x="915" y="269" font-size="11" fill="#475569">15</text><text x="937" y="292" text-anchor="middle" font-size="20" font-weight="700" fill="#172033">P</text><text x="937" y="312" text-anchor="middle" font-size="13" fill="#172033">2.19</text></g><g><rect x="970" y="252" width="56" height="70" rx="4" fill="hsl(103.1875 70% 74.09375%)" stroke="#64748b"/><text x="976" y="269" font-size="11" fill="#475569">16</text><text x="998" y="292" text-anchor="middle" font-size="20" font-weight="700" fill="#172033">S</text><text x="998" y="312" text-anchor="middle" font-size="13" fill="#172033">2.58</text></g><g><rect x="1031" y="252" width="56" height="70" rx="4" fill="hsl(65.125 70% 69.5625%)" stroke="#64748b"/><text x="1037" y="269" font-size="11" fill="#475569">17</text><text x="1059" y="292" text-anchor="middle" font-size="20" font-weight="700" fill="#172033">Cl</text><text x="1059" y="312" text-anchor="middle" font-size="13" fill="#172033">3.16</text></g><g><rect x="1092" y="252" width="56" height="70" rx="4" fill="#e5e7eb" stroke="#64748b"/><text x="1098" y="269" font-size="11" fill="#475569">18</text><text x="1120" y="292" text-anchor="middle" font-size="20" font-weight="700" fill="#172033">Ar</text><text x="1120" y="312" text-anchor="middle" font-size="13" fill="#172033">—</text></g><g><rect x="55" y="334" width="56" height="70" rx="4" fill="hsl(218.6875 70% 87.84375%)" stroke="#64748b"/><text x="61" y="351" font-size="11" fill="#475569">19</text><text x="83" y="374" text-anchor="middle" font-size="20" font-weight="700" fill="#172033">K</text><text x="83" y="394" text-anchor="middle" font-size="13" fill="#172033">0.82</text></g><g><rect x="116" y="334" width="56" height="70" rx="4" fill="hsl(206.875 70% 86.4375%)" stroke="#64748b"/><text x="122" y="351" font-size="11" fill="#475569">20</text><text x="144" y="374" text-anchor="middle" font-size="20" font-weight="700" fill="#172033">Ca</text><text x="144" y="394" text-anchor="middle" font-size="13" fill="#172033">1.00</text></g><g><rect x="177" y="334" width="56" height="70" rx="4" fill="hsl(183.25 70% 83.625%)" stroke="#64748b"/><text x="183" y="351" font-size="11" fill="#475569">21</text><text x="205" y="374" text-anchor="middle" font-size="20" font-weight="700" fill="#172033">Sc</text><text x="205" y="394" text-anchor="middle" font-size="13" fill="#172033">1.36</text></g><g><rect x="238" y="334" width="56" height="70" rx="4" fill="hsl(171.4375 70% 82.21875%)" stroke="#64748b"/><text x="244" y="351" font-size="11" fill="#475569">22</text><text x="266" y="374" text-anchor="middle" font-size="20" font-weight="700" fill="#172033">Ti</text><text x="266" y="394" text-anchor="middle" font-size="13" fill="#172033">1.54</text></g><g><rect x="299" y="334" width="56" height="70" rx="4" fill="hsl(165.53125000000003 70% 81.515625%)" stroke="#64748b"/><text x="305" y="351" font-size="11" fill="#475569">23</text><text x="327" y="374" text-anchor="middle" font-size="20" font-weight="700" fill="#172033">V</text><text x="327" y="394" text-anchor="middle" font-size="13" fill="#172033">1.63</text></g><g><rect x="360" y="334" width="56" height="70" rx="4" fill="hsl(163.5625 70% 81.28125%)" stroke="#64748b"/><text x="366" y="351" font-size="11" fill="#475569">24</text><text x="388" y="374" text-anchor="middle" font-size="20" font-weight="700" fill="#172033">Cr</text><text x="388" y="394" text-anchor="middle" font-size="13" fill="#172033">1.66</text></g><g><rect x="421" y="334" width="56" height="70" rx="4" fill="hsl(170.78125 70% 82.140625%)" stroke="#64748b"/><text x="427" y="351" font-size="11" fill="#475569">25</text><text x="449" y="374" text-anchor="middle" font-size="20" font-weight="700" fill="#172033">Mn</text><text x="449" y="394" text-anchor="middle" font-size="13" fill="#172033">1.55</text></g><g><rect x="482" y="334" width="56" height="70" rx="4" fill="hsl(152.40625 70% 79.953125%)" stroke="#64748b"/><text x="488" y="351" font-size="11" fill="#475569">26</text><text x="510" y="374" text-anchor="middle" font-size="20" font-weight="700" fill="#172033">Fe</text><text x="510" y="394" text-anchor="middle" font-size="13" fill="#172033">1.83</text></g><g><rect x="543" y="334" width="56" height="70" rx="4" fill="hsl(149.125 70% 79.5625%)" stroke="#64748b"/><text x="549" y="351" font-size="11" fill="#475569">27</text><text x="571" y="374" text-anchor="middle" font-size="20" font-weight="700" fill="#172033">Co</text><text x="571" y="394" text-anchor="middle" font-size="13" fill="#172033">1.88</text></g><g><rect x="604" y="334" width="56" height="70" rx="4" fill="hsl(147.15625 70% 79.328125%)" stroke="#64748b"/><text x="610" y="351" font-size="11" fill="#475569">28</text><text x="632" y="374" text-anchor="middle" font-size="20" font-weight="700" fill="#172033">Ni</text><text x="632" y="394" text-anchor="middle" font-size="13" fill="#172033">1.91</text></g><g><rect x="665" y="334" width="56" height="70" rx="4" fill="hsl(147.8125 70% 79.40625%)" stroke="#64748b"/><text x="671" y="351" font-size="11" fill="#475569">29</text><text x="693" y="374" text-anchor="middle" font-size="20" font-weight="700" fill="#172033">Cu</text><text x="693" y="394" text-anchor="middle" font-size="13" fill="#172033">1.90</text></g><g><rect x="726" y="334" width="56" height="70" rx="4" fill="hsl(164.21875 70% 81.359375%)" stroke="#64748b"/><text x="732" y="351" font-size="11" fill="#475569">30</text><text x="754" y="374" text-anchor="middle" font-size="20" font-weight="700" fill="#172033">Zn</text><text x="754" y="394" text-anchor="middle" font-size="13" fill="#172033">1.65</text></g><g><rect x="787" y="334" width="56" height="70" rx="4" fill="hsl(153.71875 70% 80.109375%)" stroke="#64748b"/><text x="793" y="351" font-size="11" fill="#475569">31</text><text x="815" y="374" text-anchor="middle" font-size="20" font-weight="700" fill="#172033">Ga</text><text x="815" y="394" text-anchor="middle" font-size="13" fill="#172033">1.81</text></g><g><rect x="848" y="334" width="56" height="70" rx="4" fill="hsl(140.59375000000003 70% 78.546875%)" stroke="#64748b"/><text x="854" y="351" font-size="11" fill="#475569">32</text><text x="876" y="374" text-anchor="middle" font-size="20" font-weight="700" fill="#172033">Ge</text><text x="876" y="394" text-anchor="middle" font-size="13" fill="#172033">2.01</text></g><g><rect x="909" y="334" width="56" height="70" rx="4" fill="hsl(129.4375 70% 77.21875%)" stroke="#64748b"/><text x="915" y="351" font-size="11" fill="#475569">33</text><text x="937" y="374" text-anchor="middle" font-size="20" font-weight="700" fill="#172033">As</text><text x="937" y="394" text-anchor="middle" font-size="13" fill="#172033">2.18</text></g><g><rect x="970" y="334" width="56" height="70" rx="4" fill="hsl(105.15625000000003 70% 74.328125%)" stroke="#64748b"/><text x="976" y="351" font-size="11" fill="#475569">34</text><text x="998" y="374" text-anchor="middle" font-size="20" font-weight="700" fill="#172033">Se</text><text x="998" y="394" text-anchor="middle" font-size="13" fill="#172033">2.55</text></g><g><rect x="1031" y="334" width="56" height="70" rx="4" fill="hsl(78.25 70% 71.125%)" stroke="#64748b"/><text x="1037" y="351" font-size="11" fill="#475569">35</text><text x="1059" y="374" text-anchor="middle" font-size="20" font-weight="700" fill="#172033">Br</text><text x="1059" y="394" text-anchor="middle" font-size="13" fill="#172033">2.96</text></g><g><rect x="1092" y="334" width="56" height="70" rx="4" fill="#e5e7eb" stroke="#64748b"/><text x="1098" y="351" font-size="11" fill="#475569">36</text><text x="1120" y="374" text-anchor="middle" font-size="20" font-weight="700" fill="#172033">Kr</text><text x="1120" y="394" text-anchor="middle" font-size="13" fill="#172033">—</text></g></g><g font-family="sans-serif" font-size="13" fill="#334155"><text x="83" y="76" text-anchor="middle">1</text><text x="144" y="76" text-anchor="middle">2</text><text x="205" y="76" text-anchor="middle">3</text><text x="266" y="76" text-anchor="middle">4</text><text x="327" y="76" text-anchor="middle">5</text><text x="388" y="76" text-anchor="middle">6</text><text x="449" y="76" text-anchor="middle">7</text><text x="510" y="76" text-anchor="middle">8</text><text x="571" y="76" text-anchor="middle">9</text><text x="632" y="76" text-anchor="middle">10</text><text x="693" y="76" text-anchor="middle">11</text><text x="754" y="76" text-anchor="middle">12</text><text x="815" y="76" text-anchor="middle">13</text><text x="876" y="76" text-anchor="middle">14</text><text x="937" y="76" text-anchor="middle">15</text><text x="998" y="76" text-anchor="middle">16</text><text x="1059" y="76" text-anchor="middle">17</text><text x="1120" y="76" text-anchor="middle">18</text></g><defs><linearGradient id="scale"><stop offset="0" stop-color="hsl(220 70% 88%)"/><stop offset="1" stop-color="hsl(10 70% 63%)"/></linearGradient></defs><rect x="260" y="440" width="600" height="22" fill="url(#scale)" stroke="#94a3b8"/><text x="250" y="457" text-anchor="end" font-family="sans-serif" font-size="14" fill="#334155">0.8</text><text x="870" y="457" font-family="sans-serif" font-size="14" fill="#334155">4.0</text><text x="600" y="490" text-anchor="middle" font-family="sans-serif" font-size="14" fill="#475569">—: 일반화학에서 통상 값을 제시하지 않음 · 결합 환경과 척도에 따라 값은 달라질 수 있음</text></svg>
